# xmcd
#
# Track frame offsets:
#	150
#	18121
#	35006
#	51393
#	61795
#	77170
#	91147
#	106557
#	121792
#	139254
#	155026
#	169980
#	188652
#	205936
#	223377
#
# Disc length: 3242 seconds
#
# Revision: 0
# Processed by: cddbd v1.4PL0 Copyright (c) Steve Scherf et al.
# Submitted via: dBpowerAMP V4.0
#
DISCID=cc0ca80f
DTITLE=Various Artist - smash country hits
DYEAR=1900
DGENRE=
TTITLE0=amazed
TTITLE1=ready to run
TTITLE2=that don't impress me much
TTITLE3=crazy little thing called love
TTITLE4=lesson in leavin
TTITLE5=how forever feels
TTITLE6=you've got a way
TTITLE7=tonight the heartache's on me
TTITLE8=the secret of life
TTITLE9=write this down
TTITLE10=little good-byes
TTITLE11=please remember me
TTITLE12=whatever you say
TTITLE13=one honest heart
TTITLE14=you move me
EXTD=drew's famous smash country hits by turn up the music.inc
EXTT0=
EXTT1=
EXTT2=
EXTT3=
EXTT4=
EXTT5=
EXTT6=
EXTT7=
EXTT8=
EXTT9=
EXTT10=
EXTT11=
EXTT12=
EXTT13=
EXTT14=
PLAYORDER=
